<svg width="1200" height="835" viewBox="0 0 1200 835" fill="none" xmlns="http://www.w3.org/2000/svg">
<g opacity="0.3" filter="url(#filter0_f_612_144)">
<ellipse cx="775" cy="419" rx="227" ry="207" fill="#D9D9D9"/>
</g>
<path opacity="0.1" d="M686.875 -543.205C685.276 -541.205 682.609 -537.338 681.276 -534.672C679.809 -532.005 677.276 -529.205 675.542 -528.405C673.809 -527.605 666.209 -526.938 658.609 -526.938C646.875 -526.938 644.609 -527.338 642.609 -529.472C641.409 -530.805 638.076 -532.938 635.276 -534.272C630.209 -536.538 629.942 -536.538 626.742 -534.138C622.076 -530.538 616.342 -519.872 615.409 -512.672C614.475 -506.938 613.942 -506.272 607.809 -502.938C590.209 -493.605 583.942 -492.672 576.475 -498.672C571.675 -502.672 570.609 -502.938 560.875 -502.938C555.009 -502.938 549.675 -503.605 549.009 -504.272C548.209 -505.072 544.209 -505.738 540.076 -506.005C532.875 -506.272 532.342 -506.138 526.609 -500.405L520.475 -494.405L516.742 -498.005C512.342 -502.272 506.609 -502.672 498.209 -499.205C490.475 -496.005 487.009 -492.805 481.142 -483.605C476.342 -476.005 464.475 -459.872 455.942 -449.072C451.942 -444.138 451.809 -443.605 451.809 -429.738C451.809 -418.538 452.475 -413.605 455.009 -405.605C460.875 -387.205 461.809 -384.005 461.009 -382.805C460.609 -382.138 458.076 -381.605 455.275 -381.605C450.742 -381.605 450.075 -382.138 447.942 -386.938C445.542 -392.405 436.075 -401.605 429.142 -405.338C426.475 -406.672 419.542 -407.738 408.209 -408.405C393.942 -409.205 390.609 -409.738 387.675 -412.138C383.142 -415.605 381.275 -415.605 376.209 -412.138C373.275 -410.005 371.142 -409.472 367.675 -410.005C362.075 -410.938 359.675 -408.938 355.142 -399.872C352.609 -394.805 351.675 -394.005 349.675 -394.938C347.009 -396.405 345.142 -401.472 343.142 -412.272C341.142 -422.938 338.075 -429.205 333.675 -430.938C330.475 -432.272 329.009 -432.005 322.875 -429.205C319.009 -427.338 313.942 -425.472 311.675 -425.072C307.275 -424.138 301.409 -418.538 297.142 -411.338C293.942 -406.005 292.742 -405.872 291.675 -410.672C291.142 -412.672 289.675 -416.538 288.342 -419.205C285.142 -425.472 280.209 -426.538 267.409 -423.872L258.075 -422.005L255.142 -428.138C250.609 -438.005 250.342 -438.272 246.875 -438.672C244.342 -438.938 242.075 -437.205 235.942 -430.272C231.675 -425.472 227.675 -421.605 227.142 -421.605C226.742 -421.605 225.409 -423.205 224.475 -425.338C221.542 -431.205 218.875 -433.605 215.809 -433.605C211.675 -433.605 210.342 -431.472 208.475 -422.005C206.742 -413.205 205.942 -412.272 203.142 -415.605C201.809 -417.338 201.809 -418.138 203.409 -420.005C209.009 -426.272 206.875 -433.605 199.409 -433.605C197.009 -433.605 192.742 -432.272 189.942 -430.672L184.875 -427.738L177.142 -430.938C172.875 -432.672 167.275 -434.005 164.875 -434.005C160.342 -433.872 160.209 -434.138 158.475 -442.405C157.142 -449.472 154.609 -450.672 139.675 -451.205C127.275 -451.605 125.809 -451.872 120.475 -455.605C114.475 -459.738 108.342 -460.672 99.4088 -458.672C95.6754 -457.738 94.8754 -458.005 93.9421 -460.672C92.3421 -464.938 88.4754 -466.538 72.4754 -469.605C64.7421 -471.205 57.2754 -473.072 55.6754 -473.738C54.0754 -474.672 48.7421 -474.805 42.342 -474.405C4.6087 -471.472 0.342041 -471.738 -12.7246 -478.672L-18.7246 -481.738L-27.3913 -478.138C-32.1913 -476.138 -36.9913 -473.872 -38.058 -473.072C-40.458 -471.205 -62.458 -471.605 -65.9247 -473.472C-67.9247 -474.538 -69.658 -474.405 -72.3246 -473.072C-74.458 -472.005 -82.058 -469.072 -89.1246 -466.272C-104.191 -460.538 -105.525 -459.472 -111.258 -449.338C-116.191 -440.405 -118.458 -437.338 -124.591 -431.338C-128.191 -427.738 -130.058 -426.938 -134.725 -426.938C-139.258 -426.938 -141.125 -427.738 -144.191 -430.938C-149.391 -436.405 -156.858 -436.538 -162.191 -431.205L-165.791 -427.472L-165.658 -403.472C-165.391 -377.072 -165.925 -379.072 -155.125 -363.605C-151.658 -358.938 -149.791 -354.405 -149.258 -350.672C-148.058 -340.138 -141.125 -329.338 -130.058 -321.205L-126.858 -318.805L-131.925 -319.605C-137.658 -320.538 -140.858 -318.805 -140.858 -314.672C-140.858 -313.338 -137.925 -306.538 -134.325 -299.738C-127.925 -287.738 -127.125 -283.872 -130.191 -279.605C-130.725 -278.938 -131.925 -274.405 -132.858 -269.605C-134.725 -259.338 -136.191 -257.072 -139.525 -258.938C-145.258 -262.005 -150.325 -260.538 -156.458 -254.005C-159.525 -250.538 -162.191 -247.205 -162.191 -246.672C-162.191 -245.605 -170.991 -236.538 -176.991 -231.605C-181.658 -227.605 -184.858 -223.605 -203.258 -198.938C-212.325 -186.805 -220.458 -176.005 -221.258 -174.938C-222.191 -173.872 -224.058 -171.072 -225.391 -168.938C-226.858 -166.672 -228.725 -164.405 -229.791 -163.872C-230.725 -163.338 -231.525 -162.272 -231.525 -161.472C-231.525 -160.805 -236.058 -154.138 -241.525 -146.938C-246.991 -139.605 -252.058 -132.272 -252.858 -130.405C-255.658 -122.938 -255.658 -111.605 -252.858 -95.7382C-250.058 -79.6049 -246.991 -71.7382 -240.991 -66.4049C-237.658 -63.3383 -237.125 -56.9382 -240.325 -58.1382C-241.525 -58.5383 -242.858 -58.9382 -243.391 -58.9382C-243.925 -58.9382 -247.658 -61.8716 -251.658 -65.6049C-263.658 -76.6716 -268.725 -74.2715 -273.525 -54.9382C-276.458 -42.9382 -281.925 -30.6716 -289.525 -18.9382C-292.591 -14.1382 -295.791 -8.53827 -296.591 -6.27161C-298.325 -1.73828 -300.725 19.5951 -299.791 21.9951C-299.525 22.9285 -296.991 24.9285 -294.191 26.5284C-288.858 29.5951 -287.925 30.9284 -284.325 42.2617C-281.258 51.4618 -280.325 52.3951 -272.191 53.8618C-266.191 54.9284 -265.525 55.4618 -265.125 58.7951C-264.591 62.9284 -260.991 65.7284 -254.325 66.9284C-251.791 67.3284 -247.391 68.3951 -244.458 69.1951C-239.925 70.3951 -239.391 70.9284 -240.058 73.7284C-240.725 76.1284 -240.191 77.4618 -237.925 78.9284C-233.925 81.3284 -223.258 82.7951 -216.725 81.7284C-211.525 80.7951 -209.925 78.9284 -206.991 69.9951C-206.591 68.7951 -205.791 67.7284 -205.258 67.8618C-204.725 67.8618 -200.991 71.7284 -197.125 76.3951C-193.258 80.9284 -188.058 85.7284 -185.391 87.0618C-180.858 89.1951 -180.325 89.0617 -172.458 86.2617L-164.058 83.3284L-160.325 86.9284C-155.658 91.1951 -151.791 92.2618 -145.125 91.1951C-128.191 88.6618 -125.258 88.6617 -119.925 91.7284C-115.525 94.1284 -113.125 94.5284 -105.391 93.9951C-100.325 93.7284 -91.9247 92.2618 -86.7247 90.7951C-81.3913 89.3284 -76.5913 88.3951 -75.9247 88.9284C-75.1246 89.3284 -74.1913 91.3284 -73.7913 93.1951C-72.1913 99.4618 -52.5913 116.928 -44.858 118.795C-33.658 121.595 -20.058 111.328 -16.1913 97.3284C-15.3913 94.6618 -14.5913 94.3951 -5.65796 94.3951C-0.191284 94.3951 13.0087 93.4618 23.942 92.2617C42.2087 90.3951 44.742 89.8618 55.142 84.7951C61.4087 81.8618 73.4087 74.2617 81.942 67.8618C97.1421 56.6617 101.809 51.4618 103.675 43.4618C104.075 41.4618 105.009 38.3951 105.809 36.5284L107.009 33.1951L114.875 36.6617C122.475 39.8618 122.875 39.9951 126.342 37.7284C128.342 36.3951 129.809 34.1284 129.809 32.5284C129.809 29.9951 130.475 29.7284 135.942 30.1284C140.742 30.5284 142.609 30.1284 145.009 27.8618L147.942 25.0618L151.809 29.0618C157.275 34.6617 160.742 34.2617 166.742 26.9284L171.809 20.7951L179.942 21.7284C186.342 22.3951 188.342 22.1284 189.675 20.5284C191.942 17.8618 194.342 17.8618 196.475 20.3951C197.542 21.5951 200.475 22.3951 204.342 22.3951C209.542 22.3951 212.075 23.4618 219.809 28.7951C236.742 40.2618 241.675 44.3951 243.275 48.3951C245.409 53.3284 246.742 54.3951 251.409 54.3951C254.209 54.3951 254.875 54.9284 254.209 56.3951C253.142 59.3284 257.009 63.0618 263.142 65.0618C268.209 66.7951 268.875 66.6617 277.009 62.3951C285.275 57.9951 285.675 57.9951 290.609 59.8618C294.475 61.3284 296.209 62.9284 297.142 65.9951C298.875 71.3284 301.542 74.1284 310.475 80.3951C316.742 84.6617 318.609 85.3284 323.009 84.6618L328.075 83.9951L329.675 90.3951C330.609 93.9951 333.409 99.7284 335.942 103.328C338.475 106.795 340.475 109.995 340.475 110.528C340.475 110.928 337.809 113.062 334.475 115.462C329.809 118.795 328.475 120.528 328.475 123.462C328.475 125.462 329.142 127.862 329.809 128.528C331.275 129.995 329.675 140.928 326.875 148.128C325.675 151.195 325.942 152.262 327.942 154.528C330.075 156.928 331.409 157.195 336.742 156.528L343.009 155.595L342.209 160.128C340.742 169.328 346.342 173.195 354.742 168.928C362.342 165.062 363.542 165.462 360.875 171.328C359.809 174.128 358.342 177.595 357.809 179.062C357.275 180.528 356.075 183.462 355.275 185.462C353.409 190.395 353.409 197.462 355.409 199.462C356.342 200.395 359.009 201.062 361.409 201.062C364.342 201.062 365.809 201.728 365.809 202.928C365.809 203.995 367.275 207.728 369.142 211.195C371.009 214.662 372.475 218.528 372.475 219.862C372.475 224.128 377.275 227.728 383.009 227.728C387.275 227.728 388.875 228.528 392.342 232.395C394.609 234.928 397.009 237.062 397.809 237.062C399.942 237.062 399.409 240.528 396.209 247.195C393.942 252.128 393.675 253.862 394.875 255.862C396.875 258.928 397.009 264.662 395.142 265.728C391.542 267.995 396.609 282.395 400.875 282.395C402.742 282.395 407.142 286.528 407.142 288.262C407.142 288.795 404.609 289.062 401.542 288.795C396.475 288.395 395.675 287.862 392.475 282.395C388.875 276.262 386.475 274.928 381.142 276.262C379.009 276.795 377.542 278.662 376.475 281.995C375.542 284.795 374.475 287.462 373.942 287.995C373.409 288.528 370.075 286.528 366.475 283.595C362.875 280.662 358.875 277.595 357.542 276.928C354.342 275.195 346.075 276.795 341.542 279.995L337.809 282.528V277.862C337.809 269.728 331.142 265.328 325.142 269.595C323.675 270.528 320.742 271.728 318.475 272.262C309.809 274.395 306.742 280.262 305.142 297.728C304.075 309.195 305.542 313.595 311.675 317.195L316.342 319.995L309.142 327.062C301.942 333.995 300.342 337.728 303.275 340.662C305.542 342.928 303.809 344.662 296.609 347.062C287.942 349.862 286.609 351.595 287.409 359.728C288.209 367.462 287.809 367.862 276.475 370.262C266.342 372.395 264.475 374.528 264.475 383.595C264.475 395.862 263.809 397.062 257.009 397.062C244.075 397.062 241.675 401.595 247.809 414.928C249.675 418.928 251.142 424.262 251.142 426.662C251.142 429.195 251.942 432.128 252.875 433.328C257.009 438.528 282.342 450.395 289.542 450.395C293.942 450.395 298.342 446.262 300.609 439.995C301.942 436.128 302.609 435.728 307.275 435.728C310.209 435.728 321.675 432.662 332.742 429.062C343.809 425.328 354.742 422.395 357.142 422.395C361.675 422.395 366.075 426.262 370.609 433.995C372.342 437.195 373.942 438.395 376.609 438.395C380.475 438.395 381.275 437.062 385.009 423.062C388.475 409.862 388.342 406.795 383.809 405.062C380.209 403.728 377.809 399.062 377.809 393.328V389.862L379.942 392.795C384.609 399.462 394.342 393.195 393.542 383.995C393.275 379.862 393.675 379.195 398.609 376.528C401.675 374.928 409.275 369.862 415.675 365.328C421.942 360.795 427.809 357.062 428.342 357.062C430.742 357.062 439.275 345.728 443.275 337.595C449.009 325.328 448.609 322.262 440.209 315.995C436.342 313.062 431.942 309.328 430.475 307.595C428.075 304.795 428.209 304.795 432.475 307.995C435.009 309.995 439.675 312.528 442.875 313.728C445.942 315.062 449.809 317.728 451.275 319.862C455.542 325.862 459.942 325.062 463.275 317.728C464.742 314.395 469.009 306.795 472.742 300.795L479.542 289.862L478.742 279.462C478.075 269.195 478.076 269.062 481.276 269.062C483.009 269.062 487.409 267.862 491.142 266.395C496.475 264.262 499.009 263.995 503.542 264.928C510.609 266.395 531.409 264.928 534.076 262.795C535.675 261.328 536.609 261.728 539.142 264.395C543.009 268.528 547.009 268.662 551.809 264.928C554.609 262.662 557.142 261.995 563.542 262.128C569.276 262.262 572.475 261.595 574.076 260.128C577.276 257.328 581.542 258.662 589.675 265.062C597.009 270.928 597.276 271.462 594.742 274.795C593.276 276.928 592.609 276.928 587.809 275.328C584.875 274.262 578.475 272.928 573.809 272.395C569.009 271.995 561.809 270.662 557.675 269.595C548.209 267.195 548.875 267.195 547.142 270.528C545.942 272.662 546.075 273.728 547.675 275.462C550.475 278.662 562.475 284.662 571.809 287.595L579.809 290.128L571.942 292.395C567.675 293.595 563.009 295.862 561.675 297.195C555.809 303.062 560.209 306.928 575.142 309.195C581.409 310.128 587.009 311.328 587.675 311.995C588.475 312.528 589.942 313.062 591.142 313.062C592.342 313.062 594.475 314.262 595.942 315.862C599.275 319.595 611.275 325.595 623.675 329.728C635.942 333.862 647.675 334.128 658.209 330.528C662.209 329.062 668.742 327.595 672.742 327.062C679.542 326.262 680.076 326.395 689.809 332.795C706.476 343.728 715.675 344.928 722.875 336.928C726.075 333.328 726.475 333.195 727.276 335.328C729.009 339.595 728.476 346.128 726.209 350.395C721.942 357.862 695.009 374.128 677.409 379.862C665.809 383.595 651.542 391.595 644.342 398.395C639.809 402.662 636.875 408.795 635.276 416.395C633.942 423.595 634.075 424.662 636.209 427.595C639.675 432.395 644.609 433.195 659.942 431.462C676.342 429.728 677.942 430.395 684.342 441.595C686.609 445.728 689.942 449.995 691.809 451.195C696.076 453.995 707.675 454.262 713.542 451.862C717.142 450.395 718.209 450.395 720.875 452.128C723.809 453.995 723.942 454.795 723.009 461.328C722.476 465.195 721.942 475.728 721.942 484.795C721.809 502.262 721.542 503.195 714.342 512.662C709.276 519.328 708.475 525.195 711.942 530.128C713.142 531.862 717.409 536.528 721.542 540.528C729.942 548.662 729.542 548.528 746.475 544.795C750.209 543.995 758.209 543.195 764.475 542.928C770.742 542.795 777.142 542.528 778.742 542.528C783.276 542.395 789.142 536.128 794.609 525.728C803.275 509.062 811.275 502.795 827.809 499.062C840.742 496.262 858.075 491.062 864.475 488.128C887.276 477.728 897.809 471.595 897.809 468.395C897.809 467.862 898.742 465.462 899.809 463.062C901.809 459.062 902.209 458.795 906.875 459.728C909.542 460.262 914.476 461.728 917.809 462.928C924.609 465.462 939.942 467.462 960.475 468.662L974.609 469.328L979.542 463.862C982.209 460.795 984.609 457.062 984.609 455.328C984.875 451.862 984.875 452.928 983.809 442.928C982.875 435.462 983.142 434.528 985.942 431.862C988.342 429.595 990.076 429.062 993.409 429.728C996.209 430.262 998.209 429.862 999.675 428.395C1002.34 425.595 1002.34 425.728 999.142 419.195C996.475 413.728 987.942 407.328 981.142 405.595C977.409 404.662 965.275 407.995 955.275 412.662C949.675 415.328 947.542 415.728 945.942 414.662C944.742 413.728 941.276 411.462 938.075 409.595C932.475 406.128 932.209 406.128 926.742 408.262C923.675 409.462 919.009 412.395 916.475 414.795C911.276 419.595 907.542 421.595 899.809 423.728C894.475 425.328 894.076 425.195 873.409 419.995C868.075 418.662 861.809 412.128 861.809 407.995C861.809 405.995 862.742 401.995 863.809 399.062C868.609 385.462 865.542 377.595 852.875 371.462C847.942 369.062 841.809 364.928 839.142 362.395C832.209 355.862 825.542 350.395 824.209 350.395C823.675 350.395 823.142 345.995 823.142 340.662C823.142 335.328 822.475 330.262 821.675 329.462C820.742 328.528 823.009 327.862 829.675 327.462C838.075 326.795 839.809 326.128 847.409 320.662C856.209 314.395 864.475 310.395 868.475 310.395C872.209 310.395 877.542 304.395 878.475 299.195C879.276 295.062 879.809 294.662 881.809 295.728C883.142 296.528 886.475 297.062 889.142 297.062C893.009 297.062 894.342 296.395 896.209 293.062C897.409 290.928 899.409 289.062 900.475 289.062C901.542 289.062 906.742 285.995 911.809 282.395C930.875 268.928 941.009 265.062 957.809 265.062C967.942 265.062 969.676 264.662 971.942 262.262C973.276 260.662 976.209 258.528 978.475 257.328C984.475 254.128 1006.21 245.062 1008.08 245.062C1009.01 245.062 1011.94 246.528 1014.61 248.395C1019.94 251.995 1022.48 252.395 1027.68 250.395C1031.14 249.062 1033.01 245.995 1037.14 234.128C1039.41 227.995 1039.54 227.995 1046.34 227.328C1065.68 225.328 1069.81 223.995 1075.01 218.128C1083.01 208.928 1085.68 207.195 1094.21 205.462C1104.88 203.462 1122.48 203.328 1130.88 205.195C1142.88 207.995 1150.21 203.462 1152.48 191.862C1153.14 188.128 1154.74 183.195 1155.94 180.928C1157.68 177.462 1157.81 176.128 1156.48 173.595C1153.94 169.062 1156.61 137.062 1159.68 134.528C1160.61 133.728 1167.81 132.262 1175.68 131.195C1196.34 128.528 1201.68 124.528 1207.54 107.462C1212.48 93.3284 1211.81 93.7284 1222.74 96.3951C1229.94 98.1284 1236.61 98.5284 1253.94 98.1284C1275.01 97.7284 1276.08 97.5951 1282.08 94.1284C1289.28 89.7284 1293.81 81.8618 1293.81 73.1951C1293.81 69.1951 1294.74 66.2618 1297.14 63.1951C1300.74 58.5284 1304.48 47.8618 1304.48 42.2617C1304.48 39.8618 1303.41 38.3951 1301.01 37.1951C1298.08 35.8618 1297.68 35.0618 1298.34 31.9951C1300.88 20.7951 1300.88 19.4618 1297.14 9.99512C1290.21 -8.40491 1289.54 -9.60492 1286.21 -10.4049C1283.41 -11.2049 1283.14 -11.7382 1283.94 -16.1382C1286.08 -27.6049 1286.08 -27.6049 1293.01 -28.0049C1303.41 -28.6716 1312.48 -35.8716 1312.48 -43.4716C1312.48 -49.8716 1309.54 -51.8716 1303.54 -49.7382C1299.81 -48.2715 1298.21 -48.2716 1295.81 -49.6049C1292.21 -51.6049 1283.94 -62.5383 1285.41 -63.3383C1286.08 -63.7383 1289.81 -64.9383 1293.81 -66.0049C1302.08 -68.405 1305.01 -70.9382 1311.14 -81.4716C1313.41 -85.4716 1316.74 -89.8716 1318.48 -91.2049C1326.08 -97.0715 1325.68 -113.738 1317.81 -122.938L1313.94 -127.472L1318.61 -132.538C1321.14 -135.338 1323.14 -138.805 1323.14 -140.405C1323.14 -144.538 1315.41 -150.938 1310.34 -150.938C1306.34 -150.938 1297.94 -145.872 1293.94 -141.205C1293.01 -140.005 1291.68 -138.938 1291.01 -138.938C1289.68 -138.938 1277.81 -154.272 1277.81 -156.005C1277.81 -156.672 1275.81 -159.472 1273.41 -162.272C1269.41 -166.672 1268.48 -167.205 1261.01 -167.472C1251.94 -168.005 1248.88 -169.338 1240.88 -176.805L1235.28 -182.005L1224.48 -179.605L1213.68 -177.205L1208.88 -182.005C1206.34 -184.672 1203.41 -186.938 1202.34 -186.938C1201.41 -186.938 1198.61 -189.338 1196.34 -192.272C1192.21 -197.472 1191.81 -197.605 1184.08 -197.605C1174.08 -197.605 1168.34 -200.405 1162.21 -208.138C1155.14 -217.072 1152.74 -218.938 1147.81 -218.938C1141.28 -218.938 1137.81 -214.005 1137.81 -204.405C1137.68 -200.272 1136.88 -195.472 1135.94 -193.738L1134.21 -190.672L1131.68 -193.872C1130.34 -195.605 1124.48 -200.538 1118.88 -204.672C1113.14 -208.938 1107.01 -214.272 1105.01 -216.805C1101.01 -221.738 1096.48 -232.672 1096.48 -237.338C1096.48 -239.338 1094.61 -241.605 1090.61 -244.538C1086.21 -247.472 1083.81 -250.672 1081.54 -255.872C1077.68 -264.672 1075.14 -265.605 1065.68 -261.205C1061.68 -259.472 1055.68 -256.672 1052.21 -255.072C1048.74 -253.605 1042.74 -251.605 1038.88 -250.805C1035.01 -250.005 1026.74 -247.605 1020.48 -245.472C1006.88 -240.805 999.009 -240.538 991.942 -244.405C986.209 -247.472 979.409 -247.072 976.475 -243.605C975.542 -242.538 974.475 -241.605 973.942 -241.605C973.409 -241.605 971.409 -245.472 969.275 -250.272C967.142 -255.338 963.542 -260.672 960.742 -263.072C956.342 -266.938 955.675 -267.205 949.275 -266.272C945.542 -265.738 938.875 -265.072 934.609 -264.938C929.276 -264.672 925.542 -263.605 923.009 -261.738C920.875 -260.138 918.742 -258.938 918.209 -259.072C917.142 -259.072 910.075 -267.738 902.742 -277.872C897.542 -284.938 896.742 -291.072 900.342 -295.738C904.475 -300.938 903.809 -306.938 897.809 -319.738C894.875 -326.005 892.475 -331.872 892.475 -332.805C892.475 -333.738 893.675 -335.605 895.142 -336.938C896.609 -338.272 897.809 -340.405 897.809 -341.738C897.809 -344.138 890.742 -350.938 888.209 -350.938C887.409 -350.938 884.209 -352.272 881.142 -353.738C875.009 -356.805 873.009 -359.872 871.675 -368.405C870.475 -375.872 866.609 -377.605 857.809 -374.538C848.209 -371.072 840.342 -371.605 831.409 -376.272C820.209 -382.005 809.275 -384.538 802.742 -382.805C795.409 -380.805 793.809 -382.538 795.542 -390.272C796.609 -394.938 796.475 -397.338 794.742 -401.605C793.542 -404.672 793.276 -407.205 793.942 -407.738C795.942 -408.938 795.275 -415.338 792.742 -419.205C791.409 -421.205 788.076 -424.805 785.276 -427.205L780.209 -431.472L791.809 -437.072C804.742 -443.472 807.009 -445.738 807.142 -451.738C807.142 -455.205 805.142 -458.005 796.475 -467.072C786.475 -477.738 780.209 -487.605 778.342 -495.872C777.942 -498.005 777.142 -502.005 776.609 -505.072C775.542 -510.805 765.676 -526.672 759.276 -532.805C755.009 -536.805 739.809 -542.938 734.076 -542.938C732.076 -542.938 729.009 -541.738 727.142 -540.272C722.609 -536.805 721.809 -536.938 710.609 -542.272C698.209 -548.272 691.409 -548.538 686.875 -543.205ZM782.875 324.528C785.542 327.195 789.676 330.262 791.809 331.195C795.676 332.928 795.676 332.928 788.209 333.062C781.276 333.062 779.942 332.662 775.276 328.395C772.475 325.862 769.409 323.728 768.609 323.728C766.609 323.728 766.742 321.462 768.875 320.662C773.676 318.662 778.075 319.862 782.875 324.528ZM807.142 323.595C807.142 324.262 806.209 325.462 805.142 326.395C803.409 327.728 803.142 327.595 803.142 325.195C803.142 323.595 803.942 322.395 805.142 322.395C806.209 322.395 807.142 322.928 807.142 323.595ZM800.475 332.395C799.542 333.595 798.475 334.128 798.209 333.862C797.275 332.928 799.142 330.395 800.742 330.395C801.542 330.395 801.542 331.195 800.475 332.395Z" fill="url(#paint0_linear_612_144)"/>
<circle cx="709" cy="519" r="3" fill="#D9D9D9"/>
<g filter="url(#filter1_d_612_144)">
<circle cx="709" cy="519" r="6.5" stroke="#5F5F5F" shape-rendering="crispEdges"/>
</g>
<circle cx="843" cy="493" r="3" fill="#D9D9D9"/>
<g filter="url(#filter2_d_612_144)">
<circle cx="843" cy="493" r="6.5" stroke="#5F5F5F" shape-rendering="crispEdges"/>
</g>
<circle cx="778" cy="540" r="3" fill="#D9D9D9"/>
<g filter="url(#filter3_d_612_144)">
<circle cx="778" cy="540" r="6.5" stroke="#5F5F5F" shape-rendering="crispEdges"/>
</g>
<circle cx="778" cy="456" r="3" fill="#D9D9D9"/>
<g filter="url(#filter4_d_612_144)">
<circle cx="778" cy="456" r="6.5" stroke="#5F5F5F" shape-rendering="crispEdges"/>
</g>
<circle cx="861" cy="238" r="3" fill="#D9D9D9"/>
<g filter="url(#filter5_d_612_144)">
<circle cx="861" cy="238" r="6.5" stroke="#5F5F5F" shape-rendering="crispEdges"/>
</g>
<circle cx="723" cy="449" r="3" fill="#D9D9D9"/>
<g filter="url(#filter6_d_612_144)">
<circle cx="723" cy="449" r="6.5" stroke="#5F5F5F" shape-rendering="crispEdges"/>
</g>
<circle cx="914" cy="144" r="3" fill="#D9D9D9"/>
<g filter="url(#filter7_d_612_144)">
<circle cx="914" cy="144" r="6.5" stroke="#5F5F5F" shape-rendering="crispEdges"/>
</g>
<circle cx="792" cy="186" r="3" fill="#D9D9D9"/>
<g filter="url(#filter8_d_612_144)">
<circle cx="792" cy="186" r="6.5" stroke="#5F5F5F" shape-rendering="crispEdges"/>
</g>
<circle cx="737" cy="279" r="3" fill="#D9D9D9"/>
<g filter="url(#filter9_d_612_144)">
<circle cx="737" cy="279" r="6.5" stroke="#5F5F5F" shape-rendering="crispEdges"/>
</g>
<defs>
<filter id="filter0_f_612_144" x="334" y="-2" width="882" height="842" filterUnits="userSpaceOnUse" color-interpolation-filters="sRGB">
<feFlood flood-opacity="0" result="BackgroundImageFix"/>
<feBlend mode="normal" in="SourceGraphic" in2="BackgroundImageFix" result="shape"/>
<feGaussianBlur stdDeviation="107" result="effect1_foregroundBlur_612_144"/>
</filter>
<filter id="filter1_d_612_144" x="698" y="512" width="22" height="22" filterUnits="userSpaceOnUse" color-interpolation-filters="sRGB">
<feFlood flood-opacity="0" result="BackgroundImageFix"/>
<feColorMatrix in="SourceAlpha" type="matrix" values="0 0 0 0 0 0 0 0 0 0 0 0 0 0 0 0 0 0 127 0" result="hardAlpha"/>
<feOffset dy="4"/>
<feGaussianBlur stdDeviation="2"/>
<feComposite in2="hardAlpha" operator="out"/>
<feColorMatrix type="matrix" values="0 0 0 0 0 0 0 0 0 0 0 0 0 0 0 0 0 0 0.25 0"/>
<feBlend mode="normal" in2="BackgroundImageFix" result="effect1_dropShadow_612_144"/>
<feBlend mode="normal" in="SourceGraphic" in2="effect1_dropShadow_612_144" result="shape"/>
</filter>
<filter id="filter2_d_612_144" x="832" y="486" width="22" height="22" filterUnits="userSpaceOnUse" color-interpolation-filters="sRGB">
<feFlood flood-opacity="0" result="BackgroundImageFix"/>
<feColorMatrix in="SourceAlpha" type="matrix" values="0 0 0 0 0 0 0 0 0 0 0 0 0 0 0 0 0 0 127 0" result="hardAlpha"/>
<feOffset dy="4"/>
<feGaussianBlur stdDeviation="2"/>
<feComposite in2="hardAlpha" operator="out"/>
<feColorMatrix type="matrix" values="0 0 0 0 0 0 0 0 0 0 0 0 0 0 0 0 0 0 0.25 0"/>
<feBlend mode="normal" in2="BackgroundImageFix" result="effect1_dropShadow_612_144"/>
<feBlend mode="normal" in="SourceGraphic" in2="effect1_dropShadow_612_144" result="shape"/>
</filter>
<filter id="filter3_d_612_144" x="767" y="533" width="22" height="22" filterUnits="userSpaceOnUse" color-interpolation-filters="sRGB">
<feFlood flood-opacity="0" result="BackgroundImageFix"/>
<feColorMatrix in="SourceAlpha" type="matrix" values="0 0 0 0 0 0 0 0 0 0 0 0 0 0 0 0 0 0 127 0" result="hardAlpha"/>
<feOffset dy="4"/>
<feGaussianBlur stdDeviation="2"/>
<feComposite in2="hardAlpha" operator="out"/>
<feColorMatrix type="matrix" values="0 0 0 0 0 0 0 0 0 0 0 0 0 0 0 0 0 0 0.25 0"/>
<feBlend mode="normal" in2="BackgroundImageFix" result="effect1_dropShadow_612_144"/>
<feBlend mode="normal" in="SourceGraphic" in2="effect1_dropShadow_612_144" result="shape"/>
</filter>
<filter id="filter4_d_612_144" x="767" y="449" width="22" height="22" filterUnits="userSpaceOnUse" color-interpolation-filters="sRGB">
<feFlood flood-opacity="0" result="BackgroundImageFix"/>
<feColorMatrix in="SourceAlpha" type="matrix" values="0 0 0 0 0 0 0 0 0 0 0 0 0 0 0 0 0 0 127 0" result="hardAlpha"/>
<feOffset dy="4"/>
<feGaussianBlur stdDeviation="2"/>
<feComposite in2="hardAlpha" operator="out"/>
<feColorMatrix type="matrix" values="0 0 0 0 0 0 0 0 0 0 0 0 0 0 0 0 0 0 0.25 0"/>
<feBlend mode="normal" in2="BackgroundImageFix" result="effect1_dropShadow_612_144"/>
<feBlend mode="normal" in="SourceGraphic" in2="effect1_dropShadow_612_144" result="shape"/>
</filter>
<filter id="filter5_d_612_144" x="850" y="231" width="22" height="22" filterUnits="userSpaceOnUse" color-interpolation-filters="sRGB">
<feFlood flood-opacity="0" result="BackgroundImageFix"/>
<feColorMatrix in="SourceAlpha" type="matrix" values="0 0 0 0 0 0 0 0 0 0 0 0 0 0 0 0 0 0 127 0" result="hardAlpha"/>
<feOffset dy="4"/>
<feGaussianBlur stdDeviation="2"/>
<feComposite in2="hardAlpha" operator="out"/>
<feColorMatrix type="matrix" values="0 0 0 0 0 0 0 0 0 0 0 0 0 0 0 0 0 0 0.25 0"/>
<feBlend mode="normal" in2="BackgroundImageFix" result="effect1_dropShadow_612_144"/>
<feBlend mode="normal" in="SourceGraphic" in2="effect1_dropShadow_612_144" result="shape"/>
</filter>
<filter id="filter6_d_612_144" x="712" y="442" width="22" height="22" filterUnits="userSpaceOnUse" color-interpolation-filters="sRGB">
<feFlood flood-opacity="0" result="BackgroundImageFix"/>
<feColorMatrix in="SourceAlpha" type="matrix" values="0 0 0 0 0 0 0 0 0 0 0 0 0 0 0 0 0 0 127 0" result="hardAlpha"/>
<feOffset dy="4"/>
<feGaussianBlur stdDeviation="2"/>
<feComposite in2="hardAlpha" operator="out"/>
<feColorMatrix type="matrix" values="0 0 0 0 0 0 0 0 0 0 0 0 0 0 0 0 0 0 0.25 0"/>
<feBlend mode="normal" in2="BackgroundImageFix" result="effect1_dropShadow_612_144"/>
<feBlend mode="normal" in="SourceGraphic" in2="effect1_dropShadow_612_144" result="shape"/>
</filter>
<filter id="filter7_d_612_144" x="903" y="137" width="22" height="22" filterUnits="userSpaceOnUse" color-interpolation-filters="sRGB">
<feFlood flood-opacity="0" result="BackgroundImageFix"/>
<feColorMatrix in="SourceAlpha" type="matrix" values="0 0 0 0 0 0 0 0 0 0 0 0 0 0 0 0 0 0 127 0" result="hardAlpha"/>
<feOffset dy="4"/>
<feGaussianBlur stdDeviation="2"/>
<feComposite in2="hardAlpha" operator="out"/>
<feColorMatrix type="matrix" values="0 0 0 0 0 0 0 0 0 0 0 0 0 0 0 0 0 0 0.25 0"/>
<feBlend mode="normal" in2="BackgroundImageFix" result="effect1_dropShadow_612_144"/>
<feBlend mode="normal" in="SourceGraphic" in2="effect1_dropShadow_612_144" result="shape"/>
</filter>
<filter id="filter8_d_612_144" x="781" y="179" width="22" height="22" filterUnits="userSpaceOnUse" color-interpolation-filters="sRGB">
<feFlood flood-opacity="0" result="BackgroundImageFix"/>
<feColorMatrix in="SourceAlpha" type="matrix" values="0 0 0 0 0 0 0 0 0 0 0 0 0 0 0 0 0 0 127 0" result="hardAlpha"/>
<feOffset dy="4"/>
<feGaussianBlur stdDeviation="2"/>
<feComposite in2="hardAlpha" operator="out"/>
<feColorMatrix type="matrix" values="0 0 0 0 0 0 0 0 0 0 0 0 0 0 0 0 0 0 0.25 0"/>
<feBlend mode="normal" in2="BackgroundImageFix" result="effect1_dropShadow_612_144"/>
<feBlend mode="normal" in="SourceGraphic" in2="effect1_dropShadow_612_144" result="shape"/>
</filter>
<filter id="filter9_d_612_144" x="726" y="272" width="22" height="22" filterUnits="userSpaceOnUse" color-interpolation-filters="sRGB">
<feFlood flood-opacity="0" result="BackgroundImageFix"/>
<feColorMatrix in="SourceAlpha" type="matrix" values="0 0 0 0 0 0 0 0 0 0 0 0 0 0 0 0 0 0 127 0" result="hardAlpha"/>
<feOffset dy="4"/>
<feGaussianBlur stdDeviation="2"/>
<feComposite in2="hardAlpha" operator="out"/>
<feColorMatrix type="matrix" values="0 0 0 0 0 0 0 0 0 0 0 0 0 0 0 0 0 0 0.25 0"/>
<feBlend mode="normal" in2="BackgroundImageFix" result="effect1_dropShadow_612_144"/>
<feBlend mode="normal" in="SourceGraphic" in2="effect1_dropShadow_612_144" result="shape"/>
</filter>
<linearGradient id="paint0_linear_612_144" x1="511.974" y1="1.37718e-05" x2="511.974" y2="547.25" gradientUnits="userSpaceOnUse">
<stop stop-color="#121212"/>
<stop offset="1" stop-color="white"/>
</linearGradient>
</defs>
</svg>
