<svg width="16" height="20" viewBox="0 0 16 20" fill="none" xmlns="http://www.w3.org/2000/svg">
<path d="M4.192 5V3.385M4.192 14.116V10.769M1 7.386V17.386C1.00067 17.8287 1.159 18.2083 1.475 18.525C1.791 18.8417 2.17133 19 2.616 19L13.385 19.001C13.829 19.001 14.209 18.8437 14.525 18.529C14.8417 18.2137 15 17.8327 15 17.386V7.386M1 7.386V2.615C1 2.171 1.15833 1.791 1.475 1.475C1.79167 1.159 2.17167 1.00067 2.615 1H13.385C13.829 1 14.209 1.15833 14.525 1.475C14.841 1.79167 14.9993 2.17167 15 2.615V7.386M1 7.386H15M1 7.386H8H15" stroke="white" stroke-width="1.6"/>
</svg>
