<svg width="20" height="22" viewBox="0 0 20 22" fill="none" xmlns="http://www.w3.org/2000/svg">
<path d="M10.0049 0.950195C10.2362 0.951083 10.458 0.986342 10.6689 1.05664C10.8802 1.12705 11.083 1.23561 11.2764 1.38086L18.2002 6.66113H18.1992C18.4655 6.85867 18.6742 7.11056 18.8242 7.41602H18.8232C18.9741 7.72058 19.0498 8.04387 19.0498 8.38477V18.8975C19.0498 19.4886 18.8412 19.9963 18.4248 20.417C18.0085 20.8375 17.5073 21.0489 16.9238 21.0498L3.07617 21.0488C2.49183 21.0488 1.99067 20.8366 1.5752 20.415C1.15988 19.9936 0.951072 19.4867 0.950195 18.8975V8.38477C0.950195 8.04387 1.0259 7.72058 1.17676 7.41602C1.32758 7.11152 1.53541 6.8596 1.80078 6.66211L8.72363 1.38086L8.72461 1.37988C8.91942 1.23663 9.12355 1.12868 9.33691 1.05664C9.55043 0.984587 9.77342 0.949355 10.0049 0.950195ZM13.2646 19.6475H17.6641V14.8662H13.2646V19.6475ZM2.33594 19.6475H11.8789V14.8662H2.33594V19.6475ZM8.12109 13.4639H17.6641V8.69043H8.12109V13.4639ZM2.33594 13.4639H6.73535V8.69043H2.33594V13.4639ZM3.24023 7.31348H16.7598L10 2.18652L3.24023 7.31348Z" fill="white" stroke="white" stroke-width="0.1"/>
</svg>
