<svg width="24" height="24" viewBox="0 0 24 24" fill="none" xmlns="http://www.w3.org/2000/svg">
<path d="M3.012 0C1.35888 0 0 1.35864 0 3.012C0 4.45608 1.03608 5.67504 2.4 5.96064V18.0634C1.03608 18.349 0 19.5682 0 21.0122C0 22.6656 1.35864 24.024 3.012 24.024C4.46328 24.024 5.6736 22.9742 5.94984 21.6H18.059C18.3355 22.9757 19.5598 24.024 21.0122 24.024C22.6082 24.024 23.9174 22.7549 24.007 21.1795C24.0181 21.1245 24.0238 21.0684 24.0238 21.0122C24.0238 20.9561 24.0181 20.9 24.007 20.845C23.9287 19.4681 22.9188 18.3254 21.6 18.059V5.96496C22.9188 5.69856 23.9287 4.55616 24.0072 3.17952C24.0184 3.12446 24.024 3.06842 24.024 3.01224C24.024 2.95606 24.0184 2.90002 24.0072 2.84496C23.9172 1.2696 22.6082 0 21.012 0C19.5682 0 18.349 1.03608 18.0634 2.4H5.9448C5.6592 1.03776 4.4544 0 3.012 0ZM3.012 1.68C3.75768 1.68 4.344 2.26656 4.344 3.012C4.344 3.75768 3.75768 4.344 3.012 4.344C2.26632 4.344 1.68 3.75768 1.68 3.012C1.68 2.26632 2.26656 1.68 3.012 1.68ZM21.012 1.68C21.7577 1.68 22.344 2.26656 22.344 3.012C22.344 3.75768 21.7577 4.344 21.012 4.344C20.2663 4.344 19.68 3.75768 19.68 3.012C19.68 2.26632 20.2666 1.68 21.012 1.68ZM5.81232 4.08H18.2011C18.3524 4.47204 18.5832 4.82851 18.879 5.12694C19.1749 5.42537 19.5293 5.65931 19.92 5.814V18.21C19.5332 18.363 19.182 18.5937 18.8878 18.8878C18.5937 19.182 18.363 19.5332 18.21 19.92H5.802C5.64914 19.5302 5.41724 19.1762 5.12088 18.8804C4.82451 18.5845 4.47012 18.3533 4.08 18.2011V5.82288C4.4743 5.66925 4.8321 5.43482 5.1304 5.13466C5.4287 4.8345 5.6609 4.47525 5.81208 4.08M3.012 19.68C3.75744 19.68 4.34376 20.2666 4.34376 21.012C4.34376 21.7577 3.75744 22.344 3.01176 22.344C2.26608 22.344 1.68 21.7577 1.68 21.012C1.68 20.2663 2.26656 19.68 3.012 19.68ZM21.012 19.68C21.7574 19.68 22.3438 20.2666 22.3438 21.012C22.3438 21.7577 21.7574 22.344 21.0118 22.344C20.2661 22.344 19.68 21.7577 19.68 21.012C19.68 20.2663 20.2666 19.68 21.012 19.68Z" fill="white"/>
</svg>
