<svg width="209" height="42" viewBox="0 0 209 42" fill="none" xmlns="http://www.w3.org/2000/svg">
<path d="M35.7709 12.624C35.0771 11.4676 34.1406 10.533 32.9817 9.84328C31.8268 9.15484 30.5215 8.80742 29.1083 8.80742H11.2261V33.1913H15.7072V24.1775H29.1083C30.1656 24.1775 31.1664 23.9749 32.0927 23.5788C33.0228 23.1788 33.8515 22.6249 34.5594 21.9288C35.2531 21.225 35.8081 20.3981 36.209 19.4699C36.6059 18.5494 36.8089 17.5469 36.8089 16.4918C36.8089 15.0777 36.4569 13.7791 35.7709 12.6227V12.624ZM31.3912 18.7597C30.7681 19.3879 29.9999 19.7058 29.1083 19.7058H15.7072V13.2778H29.1083C30.0011 13.2778 30.7656 13.5919 31.3912 14.2137C32.013 14.8342 32.3291 15.5944 32.3291 16.4739C32.3291 17.3533 32.0143 18.1315 31.3912 18.7597Z" fill="#CCCCCC"/>
<path d="M65.1217 13.2791V8.80742H40.7041V33.1913H65.1217V28.7196H45.1814V22.307H65.1217V17.8392H45.1814V13.2778H65.1217V13.2791Z" fill="#CCCCCC"/>
<path d="M104.733 19.5904L113.799 8.96767H108.737L100.431 18.7187H97.5215L89.1977 8.96767H84.1358L93.2176 19.5904L84.0009 33.1913H89.0628L95.8423 23.1749H102.093L108.872 33.1913H113.934L104.733 19.5904Z" fill="#CCCCCC"/>
<path d="M136.751 8.80742H125.824L116.244 33.1913H120.694L123.434 26.2018H139.138L141.893 33.1913H146.344L136.748 8.80742H136.751ZM125.195 21.7314L128.517 13.2791H134.077L137.396 21.7314H125.195Z" fill="#CCCCCC"/>
<path d="M202.533 26.4684C201.839 27.1761 201.01 27.7325 200.072 28.1261C199.131 28.5222 198.118 28.7209 197.061 28.7209H192.224C190.811 28.7209 189.498 28.3735 188.329 27.685C187.162 26.9966 186.222 26.0569 185.532 24.8941C184.842 23.7262 184.494 22.4211 184.494 21.0109C184.494 19.9481 184.693 18.9379 185.09 18.0033C185.483 17.0713 186.042 16.2444 186.751 15.5482C187.46 14.8406 188.289 14.2829 189.218 13.8829C190.152 13.4829 191.164 13.2804 192.225 13.2804H197.062C198.757 13.2804 200.287 13.7662 201.603 14.7316C202.881 15.6713 203.803 16.9059 204.354 18.3981H209C208.599 16.6097 207.849 14.9931 206.762 13.5906C205.63 12.124 204.208 10.9484 202.54 10.092C200.875 9.23946 199.03 8.8087 197.062 8.8087H192.225C190.545 8.8087 188.952 9.12664 187.478 9.76252C186.005 10.3946 184.699 11.2779 183.601 12.3855C182.487 13.4932 181.602 14.8021 180.968 16.2726C180.335 17.743 180.013 19.3366 180.013 21.0096C180.013 23.2365 180.568 25.2979 181.658 27.1312C182.753 28.9722 184.242 30.458 186.087 31.5503C187.928 32.6387 189.99 33.1926 192.225 33.1926H197.062C198.739 33.1926 200.332 32.8708 201.806 32.2388C203.283 31.6067 204.591 30.7196 205.701 29.6119C207.347 27.9697 208.457 25.9531 208.996 23.6172H204.354C203.95 24.7057 203.338 25.6646 202.533 26.4684Z" fill="#CCCCCC"/>
<path d="M0 0V42H76.2514V0H0ZM73.3376 39.0962H2.90991V2.90376H73.3376V39.0962Z" fill="#CCCCCC"/>
<path d="M176.176 21.0058C176.176 21.0878 176.176 21.1737 176.173 21.257L176.176 33.1926H149.963V29.0953L171.95 29.0914V22.1544H149.963L149.974 8.8087H154.331L154.405 18.0584H172.069V8.8087H176.175V21.0058H176.176Z" fill="#CCCCCC"/>
</svg>
