<svg width="119" height="24" viewBox="0 0 119 24" fill="none" xmlns="http://www.w3.org/2000/svg">
<path d="M20.3671 7.2137C19.9721 6.55291 19.4389 6.01886 18.7791 5.62473C18.1215 5.23134 17.3783 5.03281 16.5736 5.03281H6.39189V18.9665H8.94335V13.8157H16.5736C17.1756 13.8157 17.7455 13.6999 18.2729 13.4736C18.8025 13.245 19.2743 12.9285 19.6773 12.5308C20.0724 12.1286 20.3884 11.6561 20.6166 11.1257C20.8426 10.5997 20.9582 10.0268 20.9582 9.42389C20.9582 8.61585 20.7578 7.87375 20.3671 7.21296V7.2137ZM17.8735 10.7198C17.5187 11.0788 17.0813 11.2605 16.5736 11.2605H8.94335V7.58731H16.5736C17.082 7.58731 17.5172 7.76679 17.8735 8.12209C18.2275 8.47666 18.4075 8.91108 18.4075 9.41363C18.4075 9.91618 18.2282 10.3609 17.8735 10.7198Z" fill="white" fill-opacity="0.6"/>
<path d="M37.0789 7.58804V5.03281H23.176V18.9665H37.0789V16.4112H25.7253V12.7469H37.0789V10.1938H25.7253V7.58731H37.0789V7.58804Z" fill="white" fill-opacity="0.6"/>
<path d="M59.6325 11.1945L64.7946 5.12438H61.9125L57.1834 10.6964H55.5266L50.7872 5.12438H47.9051L53.0761 11.1945L47.8283 18.9665H50.7104L54.5705 13.2428H58.1292L61.9894 18.9665H64.8715L59.6325 11.1945Z" fill="white" fill-opacity="0.6"/>
<path d="M77.8628 5.03281H71.6414L66.1867 18.9665H68.7206L70.2809 14.9724H79.2219L80.791 18.9665H83.3249L77.8614 5.03281H77.8628ZM71.283 12.4179L73.1747 7.58804H76.3406L78.23 12.4179H71.283Z" fill="white" fill-opacity="0.6"/>
<path d="M115.318 15.1248C114.923 15.5292 114.451 15.8471 113.917 16.072C113.381 16.2984 112.804 16.412 112.202 16.412H109.448C108.643 16.412 107.896 16.2134 107.23 15.82C106.566 15.4266 106.031 14.8897 105.638 14.2252C105.245 13.5578 105.047 12.8121 105.047 12.0062C105.047 11.3989 105.16 10.8216 105.386 10.2876C105.61 9.75501 105.928 9.2825 106.332 8.88471C106.736 8.48033 107.208 8.16165 107.736 7.93309C108.268 7.70452 108.845 7.58878 109.449 7.58878H112.203C113.168 7.58878 114.039 7.86642 114.788 8.41805C115.516 8.95503 116.041 9.66051 116.355 10.5132H119C118.772 9.49128 118.345 8.5675 117.726 7.76606C117.081 6.92799 116.272 6.25622 115.322 5.76685C114.374 5.27969 113.324 5.03354 112.203 5.03354H109.449C108.492 5.03354 107.585 5.21522 106.746 5.57858C105.907 5.93974 105.164 6.44449 104.538 7.07744C103.904 7.71038 103.4 8.45835 103.039 9.29862C102.679 10.1389 102.495 11.0495 102.495 12.0055C102.495 13.278 102.811 14.456 103.432 15.5036C104.056 16.5555 104.903 17.4046 105.954 18.0288C107.002 18.6507 108.176 18.9672 109.449 18.9672H112.203C113.158 18.9672 114.065 18.7833 114.904 18.4221C115.745 18.061 116.49 17.554 117.122 16.9211C118.059 15.9827 118.691 14.8303 118.998 13.4956H116.355C116.124 14.1175 115.776 14.6655 115.318 15.1248Z" fill="white" fill-opacity="0.6"/>
<path d="M0 0V24H43.4158V0H0ZM41.7568 22.3407H1.65684V1.65929H41.7568V22.3407Z" fill="white" fill-opacity="0.6"/>
<path d="M100.311 12.0033C100.311 12.0502 100.311 12.0993 100.309 12.1469L100.311 18.9672H85.3855V16.6259L97.9043 16.6237V12.6597H85.3855L85.3921 5.03354H87.8726L87.915 10.3191H97.9723V5.03354H100.31V12.0033H100.311Z" fill="white" fill-opacity="0.6"/>
</svg>
