<svg xmlns="http://www.w3.org/2000/svg" width="375" height="616" viewBox="0 0 375 616" fill="none">
<g clip-path="url(#clip0_612_145)">
<path opacity="0.1" d="M131.494 -352.483C130.433 -351.157 128.664 -348.592 127.78 -346.824C126.807 -345.055 125.127 -343.198 123.978 -342.668C122.828 -342.137 117.788 -341.695 112.748 -341.695C104.966 -341.695 103.463 -341.96 102.136 -343.375C101.341 -344.259 99.1299 -345.674 97.273 -346.559C93.9128 -348.062 93.736 -348.062 91.6137 -346.47C88.5188 -344.083 84.7164 -337.009 84.0974 -332.234C83.4785 -328.431 83.1248 -327.989 79.0571 -325.778C67.3848 -319.589 63.2288 -318.97 58.2769 -322.949C55.0936 -325.602 54.3862 -325.778 47.931 -325.778C44.0403 -325.778 40.5032 -326.22 40.0611 -326.663C39.5305 -327.193 36.8777 -327.635 34.1365 -327.812C29.3615 -327.989 29.0078 -327.901 25.2054 -324.098L21.1378 -320.119L18.6619 -322.507C15.7438 -325.336 11.9415 -325.602 6.37061 -323.302C1.24188 -321.18 -1.05725 -319.058 -4.948 -312.957C-8.13135 -307.916 -16.0013 -297.217 -21.6606 -290.054C-24.3134 -286.782 -24.4018 -286.429 -24.4018 -277.232C-24.4018 -269.804 -23.9597 -266.533 -22.2795 -261.227C-18.3888 -249.024 -17.7698 -246.902 -18.3004 -246.106C-18.5656 -245.664 -20.2457 -245.31 -22.1027 -245.31C-25.1092 -245.31 -25.5514 -245.664 -26.9662 -248.847C-28.5579 -252.473 -34.8361 -258.574 -39.4343 -261.05C-41.2028 -261.934 -45.801 -262.642 -53.3173 -263.084C-62.7789 -263.615 -64.9895 -263.968 -66.9349 -265.56C-69.9414 -267.859 -71.1794 -267.859 -74.5396 -265.56C-76.485 -264.145 -77.8998 -263.791 -80.1989 -264.145C-83.9128 -264.764 -85.5045 -263.438 -88.511 -257.425C-90.1911 -254.065 -90.8101 -253.534 -92.1364 -254.153C-93.905 -255.126 -95.1429 -258.486 -96.4693 -265.648C-97.7957 -272.722 -99.8296 -276.879 -102.748 -278.028C-104.87 -278.912 -105.843 -278.736 -109.91 -276.879C-112.475 -275.641 -115.835 -274.403 -117.338 -274.137C-120.256 -273.518 -124.147 -269.804 -126.976 -265.029C-129.099 -261.492 -129.895 -261.404 -130.602 -264.587C-130.956 -265.914 -131.928 -268.478 -132.813 -270.247C-134.935 -274.403 -138.207 -275.11 -146.696 -273.341L-152.885 -272.104L-154.831 -276.171C-157.837 -282.715 -158.014 -282.892 -160.313 -283.157C-161.993 -283.334 -163.497 -282.184 -167.564 -277.586C-170.394 -274.403 -173.047 -271.838 -173.4 -271.838C-173.666 -271.838 -174.55 -272.899 -175.169 -274.314C-177.114 -278.205 -178.883 -279.797 -180.917 -279.797C-183.658 -279.797 -184.542 -278.382 -185.78 -272.104C-186.93 -266.267 -187.46 -265.648 -189.317 -267.859C-190.201 -269.009 -190.201 -269.539 -189.14 -270.777C-185.426 -274.933 -186.841 -279.797 -191.793 -279.797C-193.385 -279.797 -196.214 -278.912 -198.071 -277.851L-201.432 -275.906L-206.56 -278.028C-209.39 -279.178 -213.104 -280.062 -214.695 -280.062C-217.702 -279.973 -217.79 -280.15 -218.94 -285.633C-219.824 -290.319 -221.504 -291.115 -231.408 -291.469C-239.632 -291.734 -240.604 -291.911 -244.142 -294.387C-248.121 -297.128 -252.188 -297.747 -258.113 -296.421C-260.589 -295.802 -261.119 -295.979 -261.738 -297.747C-262.799 -300.577 -265.364 -301.638 -275.975 -303.672C-281.104 -304.733 -286.056 -305.971 -287.117 -306.413C-288.178 -307.032 -291.715 -307.12 -295.959 -306.855C-320.984 -304.91 -323.814 -305.087 -332.48 -309.685L-336.459 -311.719L-342.206 -309.331C-345.39 -308.005 -348.573 -306.501 -349.281 -305.971C-350.872 -304.733 -365.463 -304.998 -367.762 -306.236C-369.088 -306.944 -370.238 -306.855 -372.006 -305.971C-373.421 -305.263 -378.461 -303.318 -383.148 -301.461C-393.14 -297.659 -394.024 -296.951 -397.827 -290.231C-401.098 -284.306 -402.602 -282.273 -406.669 -278.293C-409.057 -275.906 -410.295 -275.375 -413.39 -275.375C-416.396 -275.375 -417.634 -275.906 -419.668 -278.028C-423.117 -281.654 -428.068 -281.742 -431.606 -278.205L-433.993 -275.729L-433.905 -259.812C-433.728 -242.304 -434.081 -243.63 -426.919 -233.373C-424.62 -230.278 -423.382 -227.271 -423.028 -224.795C-422.232 -217.81 -417.634 -210.647 -410.295 -205.253L-408.173 -203.661L-411.533 -204.192C-415.335 -204.811 -417.457 -203.661 -417.457 -200.92C-417.457 -200.036 -415.512 -195.526 -413.124 -191.016C-408.88 -183.058 -408.349 -180.494 -410.383 -177.664C-410.737 -177.222 -411.533 -174.215 -412.152 -171.032C-413.39 -164.223 -414.362 -162.72 -416.573 -163.958C-420.375 -165.992 -423.736 -165.019 -427.803 -160.686C-429.837 -158.387 -431.606 -156.176 -431.606 -155.823C-431.606 -155.115 -437.442 -149.102 -441.421 -145.831C-444.516 -143.178 -446.638 -140.525 -458.841 -124.166C-464.854 -116.119 -470.248 -108.957 -470.778 -108.249C-471.397 -107.542 -472.635 -105.685 -473.52 -104.27C-474.492 -102.767 -475.73 -101.264 -476.438 -100.91C-477.057 -100.556 -477.587 -99.8488 -477.587 -99.3182C-477.587 -98.8761 -480.594 -94.4548 -484.219 -89.6798C-487.845 -84.8163 -491.205 -79.9529 -491.736 -78.7149C-493.592 -73.763 -493.592 -66.2468 -491.736 -55.724C-489.879 -45.0244 -487.845 -39.8073 -483.866 -36.2702C-481.655 -34.2364 -481.301 -29.9919 -483.423 -30.7878C-484.219 -31.0531 -485.104 -31.3183 -485.457 -31.3183C-485.811 -31.3183 -488.287 -33.2637 -490.94 -35.7397C-498.898 -43.0791 -502.258 -41.4874 -505.442 -28.6656C-507.387 -20.7072 -511.012 -12.5719 -516.053 -4.79041C-518.087 -1.60706 -520.209 2.10681 -520.739 3.61008C-521.889 6.61658 -523.481 20.7648 -522.862 22.3565C-522.685 22.9755 -521.005 24.3019 -519.148 25.363C-515.611 27.3968 -514.992 28.2811 -512.604 35.7973C-510.57 41.8987 -509.951 42.5177 -504.557 43.4904C-500.578 44.1978 -500.136 44.5515 -499.871 46.7622C-499.517 49.5034 -497.13 51.3604 -492.708 52.1562C-491.028 52.4215 -488.11 53.1289 -486.165 53.6595C-483.158 54.4553 -482.804 54.809 -483.247 56.666C-483.689 58.2576 -483.335 59.1419 -481.832 60.1146C-479.179 61.7063 -472.105 62.679 -467.772 61.9715C-464.323 61.3525 -463.262 60.1146 -461.317 54.19C-461.052 53.3942 -460.521 52.6868 -460.167 52.7752C-459.814 52.7752 -457.338 55.3395 -454.773 58.4345C-452.209 61.441 -448.76 64.6243 -446.992 65.5086C-443.985 66.9234 -443.632 66.835 -438.414 64.978L-432.844 63.0327L-430.368 65.4202C-427.273 68.2498 -424.708 68.9572 -420.287 68.2498C-409.057 66.5697 -407.111 66.5697 -403.574 68.6035C-400.656 70.1952 -399.065 70.4605 -393.936 70.1068C-390.576 69.9299 -385.005 68.9572 -381.556 67.9845C-378.019 67.0118 -374.836 66.3929 -374.394 66.7466C-373.863 67.0118 -373.244 68.3382 -372.979 69.5762C-371.918 73.7322 -358.919 85.3161 -353.79 86.5541C-346.362 88.411 -337.343 81.6022 -334.779 72.3174C-334.248 70.5489 -333.717 70.372 -327.793 70.372C-324.167 70.372 -315.413 69.7531 -308.162 68.9572C-296.048 67.7192 -294.368 67.3655 -287.47 64.0053C-283.314 62.06 -275.356 57.0197 -269.697 52.7752C-259.616 45.3474 -256.521 41.8987 -255.283 36.5931C-255.018 35.2668 -254.399 33.2329 -253.868 31.995L-253.073 29.7843L-247.855 32.0834C-242.815 34.2056 -242.55 34.2941 -240.251 32.7908C-238.924 31.9066 -237.952 30.4033 -237.952 29.3422C-237.952 27.6621 -237.51 27.4852 -233.884 27.7505C-230.701 28.0158 -229.463 27.7505 -227.871 26.2473L-225.926 24.3903L-223.361 27.0431C-219.736 30.757 -217.437 30.4917 -213.458 25.6283L-210.097 21.5607L-204.703 22.1796C-200.459 22.6218 -199.132 22.4449 -198.248 21.3838C-196.745 19.6153 -195.153 19.6153 -193.738 21.2954C-193.031 22.0912 -191.086 22.6218 -188.521 22.6218C-185.073 22.6218 -183.393 23.3292 -178.264 26.8662C-167.034 34.4709 -163.762 37.2121 -162.701 39.8649C-161.286 43.1367 -160.402 43.8441 -157.307 43.8441C-155.45 43.8441 -155.008 44.1978 -155.45 45.1705C-156.157 47.1159 -153.593 49.5918 -149.525 50.9182C-146.165 52.0678 -145.723 51.9793 -140.329 49.1497C-134.846 46.2316 -134.581 46.2316 -131.309 47.4696C-128.745 48.4423 -127.595 49.5034 -126.976 51.5372C-125.827 55.0743 -124.058 56.9312 -118.134 61.0872C-113.978 63.9169 -112.74 64.3591 -109.822 63.9169L-106.462 63.4748L-105.4 67.7192C-104.781 70.1068 -102.924 73.9091 -101.244 76.2966C-99.5643 78.5957 -98.2379 80.718 -98.2379 81.0717C-98.2379 81.3369 -100.006 82.7517 -102.217 84.3434C-105.312 86.5541 -106.196 87.7036 -106.196 89.649C-106.196 90.9754 -105.754 92.5671 -105.312 93.0092C-104.339 93.9819 -105.4 101.233 -107.257 106.008C-108.053 108.042 -107.876 108.749 -106.55 110.252C-105.135 111.844 -104.251 112.021 -100.714 111.579L-96.5578 110.96L-97.0883 113.966C-98.061 120.068 -94.3471 122.632 -88.7762 119.802C-83.736 117.238 -82.9401 117.503 -84.7086 121.394C-85.416 123.251 -86.3887 125.55 -86.7424 126.523C-87.0961 127.496 -87.892 129.441 -88.4225 130.767C-89.6605 134.039 -89.6605 138.726 -88.3341 140.052C-87.7151 140.671 -85.9466 141.113 -84.3549 141.113C-82.4095 141.113 -81.4368 141.555 -81.4368 142.351C-81.4368 143.059 -80.4642 145.535 -79.2262 147.834C-77.9882 150.133 -77.0155 152.697 -77.0155 153.581C-77.0155 156.411 -73.8322 158.798 -70.0298 158.798C-67.2002 158.798 -66.1391 159.329 -63.84 161.893C-62.3367 163.574 -60.7451 164.988 -60.2145 164.988C-58.7997 164.988 -59.1534 167.287 -61.2756 171.709C-62.7789 174.98 -62.9557 176.13 -62.1599 177.456C-60.8335 179.49 -60.7451 183.293 -61.983 184C-64.3705 185.503 -61.0103 195.053 -58.1807 195.053C-56.9427 195.053 -54.0247 197.795 -54.0247 198.944C-54.0247 199.298 -55.7047 199.475 -57.7386 199.298C-61.0988 199.033 -61.6293 198.679 -63.7516 195.053C-66.1391 190.986 -67.7307 190.101 -71.2678 190.986C-72.6826 191.339 -73.6553 192.577 -74.3628 194.788C-74.9817 196.645 -75.6891 198.414 -76.0428 198.767C-76.3965 199.121 -78.6072 197.795 -80.9947 195.849C-83.3822 193.904 -86.035 191.87 -86.9193 191.428C-89.0415 190.278 -94.524 191.339 -97.5305 193.462L-100.006 195.142V192.047C-100.006 186.653 -104.428 183.735 -108.407 186.564C-109.38 187.183 -111.325 187.979 -112.828 188.333C-118.576 189.748 -120.61 193.638 -121.671 205.222C-122.378 212.827 -121.406 215.745 -117.338 218.133L-114.243 219.99L-119.018 224.676C-123.793 229.274 -124.854 231.75 -122.909 233.696C-121.406 235.199 -122.555 236.348 -127.33 237.94C-133.078 239.797 -133.962 240.947 -133.432 246.341C-132.901 251.469 -133.166 251.735 -140.683 253.326C-147.403 254.741 -148.641 256.156 -148.641 262.169C-148.641 270.304 -149.083 271.1 -153.593 271.1C-162.17 271.1 -163.762 274.107 -159.694 282.949C-158.456 285.602 -157.484 289.139 -157.484 290.731C-157.484 292.411 -156.953 294.356 -156.334 295.152C-153.593 298.601 -136.792 306.471 -132.017 306.471C-129.099 306.471 -126.181 303.729 -124.677 299.573C-123.793 297.009 -123.351 296.744 -120.256 296.744C-118.311 296.744 -110.706 294.71 -103.367 292.322C-96.0272 289.846 -88.7762 287.901 -87.1846 287.901C-84.1781 287.901 -81.26 290.465 -78.2535 295.594C-77.1039 297.716 -76.0428 298.512 -74.2743 298.512C-71.7099 298.512 -71.1794 297.628 -68.7035 288.343C-66.4044 279.589 -66.4928 277.555 -69.4993 276.406C-71.8868 275.521 -73.4785 272.426 -73.4785 268.624V266.325L-72.0637 268.27C-68.9687 272.692 -62.5136 268.536 -63.0441 262.434C-63.221 259.693 -62.9557 259.251 -59.6839 257.482C-57.6501 256.421 -52.6098 253.061 -48.3654 250.055C-44.2093 247.048 -40.3185 244.572 -39.9648 244.572C-38.3732 244.572 -32.7139 237.056 -30.0611 231.662C-26.2587 223.527 -26.524 221.493 -32.0949 217.337C-34.6593 215.391 -37.5774 212.915 -38.55 211.766C-40.1417 209.909 -40.0533 209.909 -37.2236 212.031C-35.5435 213.358 -32.4486 215.038 -30.3264 215.834C-28.2926 216.718 -25.7282 218.486 -24.7555 219.901C-21.9258 223.88 -19.0078 223.35 -16.7971 218.486C-15.8244 216.276 -12.9948 211.235 -10.5189 207.256L-6.00909 200.005L-6.53967 193.108C-6.98181 186.299 -6.98175 186.211 -4.85956 186.211C-3.71002 186.211 -0.791931 185.415 1.68402 184.442C5.22107 183.027 6.90118 182.85 9.90765 183.469C14.5943 184.442 28.3888 183.469 30.1573 182.055C31.2184 181.082 31.8374 181.347 33.5175 183.116C36.0818 185.857 38.7347 185.945 41.918 183.469C43.775 181.966 45.4551 181.524 49.6996 181.613C53.5019 181.701 55.6241 181.259 56.6852 180.286C58.8075 178.429 61.6371 179.313 67.0311 183.558C71.8946 187.449 72.0715 187.802 70.3914 190.013C69.4186 191.428 68.9765 191.428 65.7932 190.367C63.8478 189.659 59.6033 188.775 56.5084 188.421C53.3251 188.156 48.55 187.272 45.8088 186.564C39.5305 184.973 39.9727 184.973 38.8231 187.183C38.0273 188.598 38.1157 189.306 39.1768 190.455C41.0338 192.577 48.9921 196.557 55.182 198.502L60.4876 200.182L55.2704 201.685C52.4407 202.481 49.3458 203.984 48.4615 204.869C44.5708 208.759 47.4889 211.324 57.3926 212.827C61.5487 213.446 65.2626 214.242 65.7047 214.684C66.2353 215.038 67.208 215.391 68.0038 215.391C68.7997 215.391 70.2145 216.187 71.1871 217.248C73.3978 219.724 81.3562 223.703 89.5798 226.445C97.7151 229.186 105.497 229.363 112.482 226.975C115.135 226.003 119.468 225.03 122.121 224.676C126.631 224.146 126.984 224.234 133.439 228.479C144.493 235.729 150.594 236.525 155.369 231.22C157.491 228.832 157.757 228.744 158.287 230.159C159.437 232.988 159.083 237.321 157.58 240.151C154.75 245.103 136.888 255.891 125.216 259.693C117.523 262.169 108.061 267.475 103.286 271.984C100.279 274.814 98.3341 278.882 97.273 283.922C96.3887 288.697 96.4771 289.404 97.892 291.35C100.191 294.533 103.463 295.064 113.632 293.914C124.508 292.765 125.569 293.207 129.814 300.634C131.317 303.376 133.528 306.205 134.766 307.001C137.595 308.858 145.289 309.035 149.179 307.443C151.567 306.471 152.274 306.471 154.043 307.62C155.988 308.858 156.077 309.389 155.458 313.722C155.104 316.286 154.75 323.272 154.75 329.285C154.662 340.868 154.485 341.487 149.71 347.766C146.35 352.187 145.819 356.078 148.118 359.35C148.914 360.499 151.744 363.594 154.485 366.247C160.056 371.641 159.79 371.552 171.021 369.077C173.497 368.546 178.802 368.015 182.958 367.839C187.114 367.75 191.359 367.573 192.42 367.573C195.426 367.485 199.317 363.329 202.943 356.432C208.69 345.378 213.996 341.222 224.961 338.746C233.538 336.889 245.034 333.441 249.278 331.495C264.399 324.598 271.385 320.53 271.385 318.408C271.385 318.054 272.004 316.463 272.711 314.871C274.037 312.218 274.303 312.041 277.398 312.66C279.166 313.014 282.438 313.987 284.649 314.783C289.158 316.463 299.327 317.789 312.945 318.585L322.318 319.027L325.59 315.402C327.359 313.368 328.95 310.892 328.95 309.742C329.127 307.443 329.127 308.151 328.42 301.519C327.801 296.567 327.978 295.948 329.834 294.179C331.426 292.676 332.576 292.322 334.786 292.765C336.643 293.118 337.97 292.853 338.942 291.88C340.711 290.023 340.711 290.112 338.589 285.779C336.82 282.153 331.161 277.909 326.651 276.759C324.175 276.14 316.128 278.351 309.496 281.446C305.782 283.214 304.368 283.48 303.307 282.772C302.511 282.153 300.212 280.65 298.089 279.412C294.375 277.113 294.199 277.113 290.573 278.528C288.539 279.324 285.444 281.269 283.764 282.861C280.316 286.044 277.84 287.37 272.711 288.785C269.174 289.846 268.909 289.758 255.203 286.309C251.666 285.425 247.509 281.092 247.509 278.351C247.509 277.025 248.128 274.372 248.836 272.426C252.019 263.407 249.985 258.19 241.585 254.122C238.313 252.53 234.245 249.789 232.477 248.109C227.879 243.776 223.457 240.151 222.573 240.151C222.219 240.151 221.866 237.233 221.866 233.696C221.866 230.159 221.424 226.798 220.893 226.268C220.274 225.649 221.777 225.207 226.199 224.941C231.77 224.499 232.919 224.057 237.959 220.432C243.796 216.276 249.278 213.623 251.931 213.623C254.407 213.623 257.944 209.644 258.563 206.195C259.093 203.454 259.447 203.189 260.773 203.896C261.658 204.427 263.868 204.78 265.637 204.78C268.201 204.78 269.085 204.338 270.323 202.127C271.119 200.713 272.446 199.475 273.153 199.475C273.861 199.475 277.309 197.441 280.669 195.053C293.314 186.122 300.035 183.558 311.177 183.558C317.897 183.558 319.046 183.293 320.55 181.701C321.434 180.64 323.379 179.225 324.883 178.429C328.862 176.307 343.275 170.294 344.513 170.294C345.132 170.294 347.078 171.267 348.846 172.505C352.383 174.892 354.063 175.157 357.512 173.831C359.811 172.947 361.049 170.913 363.79 163.043C365.293 158.975 365.382 158.975 369.892 158.533C382.714 157.207 385.455 156.323 388.903 152.432C394.209 146.33 395.977 145.181 401.637 144.031C408.711 142.705 420.383 142.616 425.954 143.854C433.912 145.711 438.776 142.705 440.279 135.012C440.721 132.536 441.782 129.264 442.578 127.761C443.728 125.462 443.816 124.577 442.932 122.897C441.252 119.891 443.02 98.6685 445.054 96.9884C445.673 96.4579 450.448 95.4851 455.665 94.7777C469.371 93.0092 472.908 90.3564 476.799 79.0378C480.071 69.6646 479.629 69.9299 486.88 71.6984C491.655 72.848 496.076 73.1133 507.572 72.848C521.543 72.5827 522.25 72.4943 526.23 70.1952C531.005 67.2771 534.011 62.06 534.011 56.3123C534.011 53.6595 534.63 51.7141 536.222 49.6803C538.609 46.5853 541.085 39.5112 541.085 35.7973C541.085 34.2056 540.378 33.2329 538.786 32.4371C536.841 31.5529 536.575 31.0223 537.018 28.9885C538.698 21.5607 538.698 20.6764 536.222 14.3981C531.624 2.19528 531.181 1.39944 528.971 0.868866C527.114 0.338318 526.937 -0.0153809 527.468 -2.93347C528.882 -10.5381 528.882 -10.5381 533.481 -10.8034C540.378 -11.2455 546.391 -16.0206 546.391 -21.0609C546.391 -25.3053 544.445 -26.6317 540.466 -25.2169C537.99 -24.2442 536.929 -24.2442 535.338 -25.1285C532.95 -26.4549 527.468 -33.7059 528.44 -34.2364C528.882 -34.5017 531.358 -35.2975 534.011 -36.005C539.494 -37.5966 541.439 -39.2767 545.506 -46.2624C547.01 -48.9152 549.22 -51.8333 550.37 -52.7175C555.41 -56.6083 555.145 -67.6616 549.928 -73.763L547.364 -76.7695L550.458 -80.1298C552.139 -81.9867 553.465 -84.2858 553.465 -85.3469C553.465 -88.0881 548.336 -92.3326 544.976 -92.3326C542.323 -92.3326 536.752 -88.9724 534.099 -85.8774C533.481 -85.0816 532.596 -84.3742 532.154 -84.3742C531.27 -84.3742 523.4 -94.5433 523.4 -95.6928C523.4 -96.1349 522.073 -97.9919 520.482 -99.8488C517.829 -102.767 517.21 -103.121 512.258 -103.297C506.245 -103.651 504.211 -104.535 498.906 -109.487L495.192 -112.936L488.029 -111.344L480.867 -109.753L477.683 -112.936C476.003 -114.704 474.058 -116.208 473.351 -116.208C472.732 -116.208 470.875 -117.799 469.371 -119.745C466.63 -123.193 466.365 -123.282 461.236 -123.282C454.604 -123.282 450.802 -125.139 446.734 -130.268C442.048 -136.192 440.456 -137.43 437.184 -137.43C432.851 -137.43 430.552 -134.158 430.552 -127.792C430.464 -125.05 429.933 -121.867 429.314 -120.717L428.165 -118.684L426.484 -120.806C425.6 -121.955 421.71 -125.227 417.996 -127.968C414.193 -130.798 410.126 -134.335 408.799 -136.015C406.146 -139.287 403.14 -146.538 403.14 -149.633C403.14 -150.959 401.902 -152.463 399.249 -154.408C396.331 -156.353 394.739 -158.476 393.236 -161.924C390.672 -167.76 388.992 -168.379 382.713 -165.461C380.061 -164.312 376.081 -162.455 373.782 -161.394C371.483 -160.421 367.504 -159.095 364.94 -158.564C362.375 -158.033 356.893 -156.442 352.737 -155.027C343.717 -151.932 338.5 -151.755 333.814 -154.32C330.011 -156.353 325.502 -156.088 323.556 -153.789C322.937 -153.082 322.23 -152.463 321.876 -152.463C321.522 -152.463 320.196 -155.027 318.781 -158.21C317.366 -161.57 314.979 -165.108 313.122 -166.699C310.204 -169.264 309.762 -169.44 305.517 -168.821C303.041 -168.468 298.62 -168.026 295.79 -167.937C292.253 -167.76 289.777 -167.053 288.097 -165.815C286.682 -164.754 285.268 -163.958 284.914 -164.046C284.206 -164.046 279.52 -169.794 274.656 -176.515C271.208 -181.201 270.677 -185.269 273.065 -188.364C275.806 -191.812 275.364 -195.792 271.385 -204.28C269.439 -208.437 267.848 -212.327 267.848 -212.946C267.848 -213.565 268.643 -214.803 269.616 -215.687C270.589 -216.572 271.385 -217.987 271.385 -218.871C271.385 -220.462 266.698 -224.972 265.018 -224.972C264.487 -224.972 262.365 -225.857 260.331 -226.829C256.264 -228.863 254.937 -230.897 254.053 -236.556C253.257 -241.508 250.693 -242.658 244.857 -240.624C238.49 -238.325 233.273 -238.678 227.348 -241.773C219.92 -245.576 212.669 -247.256 208.336 -246.106C203.473 -244.78 202.412 -245.929 203.562 -251.058C204.269 -254.153 204.18 -255.745 203.031 -258.574C202.235 -260.608 202.058 -262.288 202.5 -262.642C203.827 -263.438 203.385 -267.682 201.705 -270.247C200.82 -271.573 198.61 -273.961 196.753 -275.552L193.393 -278.382L201.086 -282.096C209.663 -286.34 211.166 -287.843 211.255 -291.823C211.255 -294.122 209.928 -295.979 204.18 -301.992C197.549 -309.066 193.393 -315.609 192.155 -321.092C191.889 -322.507 191.359 -325.159 191.005 -327.193C190.298 -330.996 183.754 -341.518 179.51 -345.586C176.68 -348.239 166.599 -352.306 162.797 -352.306C161.471 -352.306 159.437 -351.51 158.199 -350.538C155.192 -348.239 154.662 -348.327 147.234 -351.864C139.01 -355.843 134.5 -356.02 131.494 -352.483ZM195.161 222.996C196.93 224.765 199.671 226.798 201.086 227.417C203.65 228.567 203.65 228.567 198.698 228.655C194.1 228.655 193.216 228.39 190.121 225.56C188.264 223.88 186.23 222.465 185.699 222.465C184.373 222.465 184.461 220.962 185.876 220.432C189.06 219.105 191.978 219.901 195.161 222.996ZM211.255 222.377C211.255 222.819 210.636 223.615 209.928 224.234C208.779 225.118 208.602 225.03 208.602 223.438C208.602 222.377 209.132 221.581 209.928 221.581C210.636 221.581 211.255 221.935 211.255 222.377ZM206.833 228.213C206.214 229.009 205.507 229.363 205.33 229.186C204.711 228.567 205.949 226.887 207.01 226.887C207.541 226.887 207.541 227.417 206.833 228.213Z" fill="url(#paint0_linear_612_145)"/>
<g opacity="0.3" filter="url(#filter0_f_612_145)">
<ellipse cx="189.938" cy="285.649" rx="150.546" ry="137.282" fill="#D9D9D9"/>
</g>
<circle cx="146.167" cy="351.97" r="1.98959" fill="#D9D9D9"/>
<g filter="url(#filter1_d_612_145)">
<circle cx="146.167" cy="351.97" r="4.31079" stroke="#5F5F5F" stroke-width="0.663198" shape-rendering="crispEdges"/>
</g>
<circle cx="235.036" cy="334.726" r="1.98959" fill="#D9D9D9"/>
<g filter="url(#filter2_d_612_145)">
<circle cx="235.036" cy="334.726" r="4.31079" stroke="#5F5F5F" stroke-width="0.663198" shape-rendering="crispEdges"/>
</g>
<circle cx="191.928" cy="365.896" r="1.98959" fill="#D9D9D9"/>
<g filter="url(#filter3_d_612_145)">
<circle cx="191.928" cy="365.896" r="4.31079" stroke="#5F5F5F" stroke-width="0.663198" shape-rendering="crispEdges"/>
</g>
<circle cx="191.928" cy="310.188" r="1.98959" fill="#D9D9D9"/>
<g filter="url(#filter4_d_612_145)">
<circle cx="191.928" cy="310.188" r="4.31079" stroke="#5F5F5F" stroke-width="0.663198" shape-rendering="crispEdges"/>
</g>
<circle cx="246.973" cy="165.611" r="1.98959" fill="#D9D9D9"/>
<g filter="url(#filter5_d_612_145)">
<circle cx="246.973" cy="165.611" r="4.31079" stroke="#5F5F5F" stroke-width="0.663198" shape-rendering="crispEdges"/>
</g>
<circle cx="155.452" cy="305.545" r="1.98959" fill="#D9D9D9"/>
<g filter="url(#filter6_d_612_145)">
<circle cx="155.452" cy="305.545" r="4.31079" stroke="#5F5F5F" stroke-width="0.663198" shape-rendering="crispEdges"/>
</g>
<circle cx="282.122" cy="103.27" r="1.98959" fill="#D9D9D9"/>
<g filter="url(#filter7_d_612_145)">
<circle cx="282.123" cy="103.27" r="4.31079" stroke="#5F5F5F" stroke-width="0.663198" shape-rendering="crispEdges"/>
</g>
<circle cx="201.212" cy="131.124" r="1.98959" fill="#D9D9D9"/>
<g filter="url(#filter8_d_612_145)">
<circle cx="201.212" cy="131.124" r="4.31079" stroke="#5F5F5F" stroke-width="0.663198" shape-rendering="crispEdges"/>
</g>
<circle cx="164.736" cy="192.802" r="1.98959" fill="#D9D9D9"/>
<g filter="url(#filter9_d_612_145)">
<circle cx="164.736" cy="192.802" r="4.31079" stroke="#5F5F5F" stroke-width="0.663198" shape-rendering="crispEdges"/>
</g>

</g>
<defs>
<filter id="filter0_f_612_145" x="-102.532" y="6.44276" width="584.941" height="558.413" filterUnits="userSpaceOnUse" color-interpolation-filters="sRGB">
<feFlood flood-opacity="0" result="BackgroundImageFix"/>
<feBlend mode="normal" in="SourceGraphic" in2="BackgroundImageFix" result="shape"/>
<feGaussianBlur stdDeviation="70.9622" result="effect1_foregroundBlur_612_145"/>
</filter>
<filter id="filter1_d_612_145" x="138.872" y="347.327" width="14.5904" height="14.5903" filterUnits="userSpaceOnUse" color-interpolation-filters="sRGB">
<feFlood flood-opacity="0" result="BackgroundImageFix"/>
<feColorMatrix in="SourceAlpha" type="matrix" values="0 0 0 0 0 0 0 0 0 0 0 0 0 0 0 0 0 0 127 0" result="hardAlpha"/>
<feOffset dy="2.65279"/>
<feGaussianBlur stdDeviation="1.3264"/>
<feComposite in2="hardAlpha" operator="out"/>
<feColorMatrix type="matrix" values="0 0 0 0 0 0 0 0 0 0 0 0 0 0 0 0 0 0 0.25 0"/>
<feBlend mode="normal" in2="BackgroundImageFix" result="effect1_dropShadow_612_145"/>
<feBlend mode="normal" in="SourceGraphic" in2="effect1_dropShadow_612_145" result="shape"/>
</filter>
<filter id="filter2_d_612_145" x="227.74" y="330.084" width="14.5904" height="14.5903" filterUnits="userSpaceOnUse" color-interpolation-filters="sRGB">
<feFlood flood-opacity="0" result="BackgroundImageFix"/>
<feColorMatrix in="SourceAlpha" type="matrix" values="0 0 0 0 0 0 0 0 0 0 0 0 0 0 0 0 0 0 127 0" result="hardAlpha"/>
<feOffset dy="2.65279"/>
<feGaussianBlur stdDeviation="1.3264"/>
<feComposite in2="hardAlpha" operator="out"/>
<feColorMatrix type="matrix" values="0 0 0 0 0 0 0 0 0 0 0 0 0 0 0 0 0 0 0.25 0"/>
<feBlend mode="normal" in2="BackgroundImageFix" result="effect1_dropShadow_612_145"/>
<feBlend mode="normal" in="SourceGraphic" in2="effect1_dropShadow_612_145" result="shape"/>
</filter>
<filter id="filter3_d_612_145" x="184.633" y="361.254" width="14.5904" height="14.5903" filterUnits="userSpaceOnUse" color-interpolation-filters="sRGB">
<feFlood flood-opacity="0" result="BackgroundImageFix"/>
<feColorMatrix in="SourceAlpha" type="matrix" values="0 0 0 0 0 0 0 0 0 0 0 0 0 0 0 0 0 0 127 0" result="hardAlpha"/>
<feOffset dy="2.65279"/>
<feGaussianBlur stdDeviation="1.3264"/>
<feComposite in2="hardAlpha" operator="out"/>
<feColorMatrix type="matrix" values="0 0 0 0 0 0 0 0 0 0 0 0 0 0 0 0 0 0 0.25 0"/>
<feBlend mode="normal" in2="BackgroundImageFix" result="effect1_dropShadow_612_145"/>
<feBlend mode="normal" in="SourceGraphic" in2="effect1_dropShadow_612_145" result="shape"/>
</filter>
<filter id="filter4_d_612_145" x="184.632" y="305.545" width="14.5904" height="14.5903" filterUnits="userSpaceOnUse" color-interpolation-filters="sRGB">
<feFlood flood-opacity="0" result="BackgroundImageFix"/>
<feColorMatrix in="SourceAlpha" type="matrix" values="0 0 0 0 0 0 0 0 0 0 0 0 0 0 0 0 0 0 127 0" result="hardAlpha"/>
<feOffset dy="2.65279"/>
<feGaussianBlur stdDeviation="1.3264"/>
<feComposite in2="hardAlpha" operator="out"/>
<feColorMatrix type="matrix" values="0 0 0 0 0 0 0 0 0 0 0 0 0 0 0 0 0 0 0.25 0"/>
<feBlend mode="normal" in2="BackgroundImageFix" result="effect1_dropShadow_612_145"/>
<feBlend mode="normal" in="SourceGraphic" in2="effect1_dropShadow_612_145" result="shape"/>
</filter>
<filter id="filter5_d_612_145" x="239.678" y="160.968" width="14.5904" height="14.5903" filterUnits="userSpaceOnUse" color-interpolation-filters="sRGB">
<feFlood flood-opacity="0" result="BackgroundImageFix"/>
<feColorMatrix in="SourceAlpha" type="matrix" values="0 0 0 0 0 0 0 0 0 0 0 0 0 0 0 0 0 0 127 0" result="hardAlpha"/>
<feOffset dy="2.65279"/>
<feGaussianBlur stdDeviation="1.3264"/>
<feComposite in2="hardAlpha" operator="out"/>
<feColorMatrix type="matrix" values="0 0 0 0 0 0 0 0 0 0 0 0 0 0 0 0 0 0 0.25 0"/>
<feBlend mode="normal" in2="BackgroundImageFix" result="effect1_dropShadow_612_145"/>
<feBlend mode="normal" in="SourceGraphic" in2="effect1_dropShadow_612_145" result="shape"/>
</filter>
<filter id="filter6_d_612_145" x="148.157" y="300.903" width="14.5904" height="14.5903" filterUnits="userSpaceOnUse" color-interpolation-filters="sRGB">
<feFlood flood-opacity="0" result="BackgroundImageFix"/>
<feColorMatrix in="SourceAlpha" type="matrix" values="0 0 0 0 0 0 0 0 0 0 0 0 0 0 0 0 0 0 127 0" result="hardAlpha"/>
<feOffset dy="2.65279"/>
<feGaussianBlur stdDeviation="1.3264"/>
<feComposite in2="hardAlpha" operator="out"/>
<feColorMatrix type="matrix" values="0 0 0 0 0 0 0 0 0 0 0 0 0 0 0 0 0 0 0.25 0"/>
<feBlend mode="normal" in2="BackgroundImageFix" result="effect1_dropShadow_612_145"/>
<feBlend mode="normal" in="SourceGraphic" in2="effect1_dropShadow_612_145" result="shape"/>
</filter>
<filter id="filter7_d_612_145" x="274.828" y="98.6274" width="14.5904" height="14.5903" filterUnits="userSpaceOnUse" color-interpolation-filters="sRGB">
<feFlood flood-opacity="0" result="BackgroundImageFix"/>
<feColorMatrix in="SourceAlpha" type="matrix" values="0 0 0 0 0 0 0 0 0 0 0 0 0 0 0 0 0 0 127 0" result="hardAlpha"/>
<feOffset dy="2.65279"/>
<feGaussianBlur stdDeviation="1.3264"/>
<feComposite in2="hardAlpha" operator="out"/>
<feColorMatrix type="matrix" values="0 0 0 0 0 0 0 0 0 0 0 0 0 0 0 0 0 0 0.25 0"/>
<feBlend mode="normal" in2="BackgroundImageFix" result="effect1_dropShadow_612_145"/>
<feBlend mode="normal" in="SourceGraphic" in2="effect1_dropShadow_612_145" result="shape"/>
</filter>
<filter id="filter8_d_612_145" x="193.917" y="126.482" width="14.5904" height="14.5903" filterUnits="userSpaceOnUse" color-interpolation-filters="sRGB">
<feFlood flood-opacity="0" result="BackgroundImageFix"/>
<feColorMatrix in="SourceAlpha" type="matrix" values="0 0 0 0 0 0 0 0 0 0 0 0 0 0 0 0 0 0 127 0" result="hardAlpha"/>
<feOffset dy="2.65279"/>
<feGaussianBlur stdDeviation="1.3264"/>
<feComposite in2="hardAlpha" operator="out"/>
<feColorMatrix type="matrix" values="0 0 0 0 0 0 0 0 0 0 0 0 0 0 0 0 0 0 0.25 0"/>
<feBlend mode="normal" in2="BackgroundImageFix" result="effect1_dropShadow_612_145"/>
<feBlend mode="normal" in="SourceGraphic" in2="effect1_dropShadow_612_145" result="shape"/>
</filter>
<filter id="filter9_d_612_145" x="157.441" y="188.159" width="14.5904" height="14.5903" filterUnits="userSpaceOnUse" color-interpolation-filters="sRGB">
<feFlood flood-opacity="0" result="BackgroundImageFix"/>
<feColorMatrix in="SourceAlpha" type="matrix" values="0 0 0 0 0 0 0 0 0 0 0 0 0 0 0 0 0 0 127 0" result="hardAlpha"/>
<feOffset dy="2.65279"/>
<feGaussianBlur stdDeviation="1.3264"/>
<feComposite in2="hardAlpha" operator="out"/>
<feColorMatrix type="matrix" values="0 0 0 0 0 0 0 0 0 0 0 0 0 0 0 0 0 0 0.25 0"/>
<feBlend mode="normal" in2="BackgroundImageFix" result="effect1_dropShadow_612_145"/>
<feBlend mode="normal" in="SourceGraphic" in2="effect1_dropShadow_612_145" result="shape"/>
</filter>
<linearGradient id="paint0_linear_612_145" x1="15.5" y1="7.76939" x2="15.5" y2="370.705" gradientUnits="userSpaceOnUse">
<stop stop-color="#121212"/>
<stop offset="1" stop-color="white"/>
</linearGradient>
<clipPath id="clip0_612_145">
<rect width="375" height="616" fill="white"/>
</clipPath>
</defs>
</svg>