<svg width="22" height="22" viewBox="0 0 22 22" fill="none" xmlns="http://www.w3.org/2000/svg">
<path d="M1 6H3.5M1 11H4.75M1 16H3.5M6 1V3.5M11 1V4.75M16 1V3.5M2.25 1H19.75C20.0815 1 20.3995 1.1317 20.6339 1.36612C20.8683 1.60054 21 1.91848 21 2.25V8.5C21 8.83152 20.8683 9.14946 20.6339 9.38388C20.3995 9.6183 20.0815 9.75 19.75 9.75H11C10.6685 9.75 10.3505 9.8817 10.1161 10.1161C9.8817 10.3505 9.75 10.6685 9.75 11V19.75C9.75 20.0815 9.6183 20.3995 9.38388 20.6339C9.14946 20.8683 8.83152 21 8.5 21H2.25C1.91848 21 1.60054 20.8683 1.36612 20.6339C1.1317 20.3995 1 20.0815 1 19.75V2.25C1 1.91848 1.1317 1.60054 1.36612 1.36612C1.60054 1.1317 1.91848 1 2.25 1Z" stroke="white" stroke-width="1.6" stroke-linecap="round" stroke-linejoin="round"/>
</svg>
